<svg width="1024" height="1024" viewBox="0 0 1024 1024" fill="none" xmlns="http://www.w3.org/2000/svg">
  <defs>
    <linearGradient id="bg" x1="116" y1="94" x2="890" y2="930" gradientUnits="userSpaceOnUse">
      <stop stop-color="#FFF5E6"/>
      <stop offset="0.5" stop-color="#E7F6EA"/>
      <stop offset="1" stop-color="#DEEAFE"/>
    </linearGradient>
    <radialGradient id="peachGlow" cx="0" cy="0" r="1" gradientUnits="userSpaceOnUse" gradientTransform="translate(248 206) rotate(49.3) scale(258)">
      <stop stop-color="#FFC6B0"/>
      <stop offset="1" stop-color="#FFC6B0" stop-opacity="0"/>
    </radialGradient>
    <radialGradient id="skyGlow" cx="0" cy="0" r="1" gradientUnits="userSpaceOnUse" gradientTransform="translate(792 828) rotate(180) scale(320 280)">
      <stop stop-color="#BFD9FF"/>
      <stop offset="1" stop-color="#BFD9FF" stop-opacity="0"/>
    </radialGradient>
    <linearGradient id="panel" x1="262" y1="232" x2="782" y2="802" gradientUnits="userSpaceOnUse">
      <stop stop-color="white" stop-opacity="0.82"/>
      <stop offset="1" stop-color="white" stop-opacity="0.48"/>
    </linearGradient>
    <linearGradient id="mintBubble" x1="252" y1="650" x2="392" y2="782" gradientUnits="userSpaceOnUse">
      <stop stop-color="#C8F6D7"/>
      <stop offset="1" stop-color="#86DCA3"/>
    </linearGradient>
    <linearGradient id="peachBubble" x1="668" y1="252" x2="784" y2="364" gradientUnits="userSpaceOnUse">
      <stop stop-color="#FFD9CE"/>
      <stop offset="1" stop-color="#F1A089"/>
    </linearGradient>
    <filter id="panelShadow" x="176" y="196" width="672" height="688" filterUnits="userSpaceOnUse" color-interpolation-filters="sRGB">
      <feDropShadow dx="0" dy="24" stdDeviation="28" flood-color="#7B8AA6" flood-opacity="0.18"/>
    </filter>
    <filter id="bubbleShadow" x="214" y="224" width="612" height="602" filterUnits="userSpaceOnUse" color-interpolation-filters="sRGB">
      <feDropShadow dx="0" dy="14" stdDeviation="18" flood-color="#8994AB" flood-opacity="0.16"/>
    </filter>
  </defs>

  <rect x="56" y="56" width="912" height="912" rx="220" fill="url(#bg)"/>
  <rect x="56" y="56" width="912" height="912" rx="220" fill="url(#peachGlow)"/>
  <rect x="56" y="56" width="912" height="912" rx="220" fill="url(#skyGlow)"/>
  <rect x="56.5" y="56.5" width="911" height="911" rx="219.5" stroke="white" stroke-opacity="0.42"/>

  <g filter="url(#panelShadow)">
    <rect x="228" y="226" width="568" height="568" rx="176" fill="url(#panel)"/>
    <rect x="228.5" y="226.5" width="567" height="567" rx="175.5" stroke="white" stroke-opacity="0.58"/>
    <ellipse cx="512" cy="302" rx="196" ry="90" fill="white" fill-opacity="0.36"/>
  </g>

  <g filter="url(#bubbleShadow)">
    <circle cx="320" cy="708" r="68" fill="url(#mintBubble)"/>
    <circle cx="726" cy="318" r="58" fill="url(#peachBubble)"/>
  </g>

  <path d="M320 678V738" stroke="white" stroke-width="18" stroke-linecap="round"/>
  <path d="M290 708H350" stroke="white" stroke-width="18" stroke-linecap="round"/>
  <path d="M698 318H754" stroke="white" stroke-width="16" stroke-linecap="round"/>

  <text x="512" y="618" text-anchor="middle" fill="#111111" font-family="Apple Color Emoji, sans-serif" font-size="300">👍</text>
</svg>
