<svg width="1024" height="1024" viewBox="0 0 1024 1024" fill="none" xmlns="http://www.w3.org/2000/svg">
  <defs>
    <linearGradient id="bg" x1="108" y1="96" x2="916" y2="924" gradientUnits="userSpaceOnUse">
      <stop stop-color="#FFF3E1"/>
      <stop offset="0.52" stop-color="#E4F7EA"/>
      <stop offset="1" stop-color="#D8E7FF"/>
    </linearGradient>
    <radialGradient id="peachGlow" cx="0" cy="0" r="1" gradientUnits="userSpaceOnUse" gradientTransform="translate(264 214) rotate(41) scale(284)">
      <stop stop-color="#FFBEA8"/>
      <stop offset="1" stop-color="#FFBEA8" stop-opacity="0"/>
    </radialGradient>
    <radialGradient id="blueGlow" cx="0" cy="0" r="1" gradientUnits="userSpaceOnUse" gradientTransform="translate(786 818) rotate(-148) scale(334 296)">
      <stop stop-color="#AECFFF"/>
      <stop offset="1" stop-color="#AECFFF" stop-opacity="0"/>
    </radialGradient>
    <linearGradient id="backCard" x1="332" y1="248" x2="770" y2="696" gradientUnits="userSpaceOnUse">
      <stop stop-color="#FFF8FB" stop-opacity="0.95"/>
      <stop offset="1" stop-color="#D7E8FF" stop-opacity="0.92"/>
    </linearGradient>
    <linearGradient id="frontCard" x1="242" y1="252" x2="788" y2="810" gradientUnits="userSpaceOnUse">
      <stop stop-color="white" stop-opacity="0.98"/>
      <stop offset="1" stop-color="#F3F8FF" stop-opacity="0.78"/>
    </linearGradient>
    <linearGradient id="ring" x1="398" y1="356" x2="650" y2="620" gradientUnits="userSpaceOnUse">
      <stop stop-color="white" stop-opacity="0.88"/>
      <stop offset="1" stop-color="white" stop-opacity="0.22"/>
    </linearGradient>
    <linearGradient id="fallBadge" x1="220" y1="670" x2="388" y2="820" gradientUnits="userSpaceOnUse">
      <stop stop-color="#D9EEFF"/>
      <stop offset="1" stop-color="#5DA8FF"/>
    </linearGradient>
    <linearGradient id="riseBadge" x1="648" y1="224" x2="812" y2="370" gradientUnits="userSpaceOnUse">
      <stop stop-color="#FFD6D9"/>
      <stop offset="1" stop-color="#FF5D70"/>
    </linearGradient>
    <linearGradient id="boltGrad" x1="292" y1="238" x2="360" y2="338" gradientUnits="userSpaceOnUse">
      <stop stop-color="#FFF6C7"/>
      <stop offset="1" stop-color="#FFC55C"/>
    </linearGradient>
    <filter id="bgShadow" x="20" y="20" width="984" height="984" filterUnits="userSpaceOnUse" color-interpolation-filters="sRGB">
      <feDropShadow dx="0" dy="20" stdDeviation="26" flood-color="#8594B0" flood-opacity="0.14"/>
    </filter>
    <filter id="cardShadow" x="188" y="168" width="664" height="698" filterUnits="userSpaceOnUse" color-interpolation-filters="sRGB">
      <feDropShadow dx="0" dy="24" stdDeviation="24" flood-color="#7183A0" flood-opacity="0.18"/>
    </filter>
    <filter id="badgeShadow" x="176" y="186" width="676" height="658" filterUnits="userSpaceOnUse" color-interpolation-filters="sRGB">
      <feDropShadow dx="0" dy="14" stdDeviation="16" flood-color="#8090AA" flood-opacity="0.16"/>
    </filter>
    <filter id="softGlow" x="340" y="298" width="344" height="344" filterUnits="userSpaceOnUse" color-interpolation-filters="sRGB">
      <feGaussianBlur stdDeviation="22"/>
    </filter>
  </defs>

  <g filter="url(#bgShadow)">
    <rect x="56" y="56" width="912" height="912" rx="224" fill="url(#bg)"/>
    <rect x="56" y="56" width="912" height="912" rx="224" fill="url(#peachGlow)"/>
    <rect x="56" y="56" width="912" height="912" rx="224" fill="url(#blueGlow)"/>
    <rect x="56.5" y="56.5" width="911" height="911" rx="223.5" stroke="white" stroke-opacity="0.42"/>
  </g>

  <ellipse cx="506" cy="184" rx="276" ry="112" fill="white" fill-opacity="0.38"/>

  <g filter="url(#cardShadow)">
    <g transform="rotate(8 558 444)">
      <rect x="330" y="250" width="364" height="364" rx="112" fill="url(#backCard)"/>
      <rect x="330.5" y="250.5" width="363" height="363" rx="111.5" stroke="white" stroke-opacity="0.58"/>
    </g>

    <g transform="rotate(-7 508 514)">
      <rect x="214" y="236" width="580" height="580" rx="180" fill="url(#frontCard)"/>
      <rect x="214.5" y="236.5" width="579" height="579" rx="179.5" stroke="white" stroke-opacity="0.7"/>
      <ellipse cx="504" cy="298" rx="222" ry="96" fill="white" fill-opacity="0.56"/>
      <circle cx="506" cy="534" r="146" fill="url(#ring)"/>
      <circle cx="506" cy="534" r="130" fill="white" fill-opacity="0.18"/>
    </g>
  </g>

  <g filter="url(#softGlow)">
    <circle cx="512" cy="520" r="108" fill="#FFE1A8" fill-opacity="0.72"/>
  </g>

  <g transform="rotate(-7 508 514)">
    <text x="506" y="626" text-anchor="middle" fill="#111111" font-family="Apple Color Emoji, sans-serif" font-size="328">👍</text>
  </g>

  <g filter="url(#badgeShadow)">
    <circle cx="288" cy="738" r="76" fill="url(#fallBadge)"/>
    <circle cx="732" cy="286" r="64" fill="url(#riseBadge)"/>
  </g>

  <path d="M250 694L274 718L290 702L322 734" stroke="white" stroke-width="18" stroke-linecap="round" stroke-linejoin="round"/>
  <path d="M300 734H322V712" stroke="white" stroke-width="18" stroke-linecap="round" stroke-linejoin="round"/>
  <path d="M692 310L714 288L730 304L756 278" stroke="white" stroke-width="18" stroke-linecap="round" stroke-linejoin="round"/>
  <path d="M736 278H756V298" stroke="white" stroke-width="18" stroke-linecap="round" stroke-linejoin="round"/>

  <path d="M318 256L354 294H332L350 338L302 294H324L318 256Z" fill="url(#boltGrad)"/>
  <circle cx="386" cy="234" r="10" fill="white" fill-opacity="0.96"/>
  <circle cx="664" cy="748" r="8" fill="white" fill-opacity="0.74"/>
</svg>
